# xmcd
#
# Track frame offsets:
#	150
#	10770
#	24251
#	41364
#	49375
#	63661
#	85130
#	95654
#	109837
#	132042
#
# Disc length: 1963 seconds
#
# Revision: 0
# Processed by: cddbd v1.4PL0 Copyright (c) Steve Scherf et al.
# Submitted via: dBpowerAMP V4.0
#
DISCID=7a07a90a
DTITLE=Wild Sage - Endless Detour
DYEAR=1900
DGENRE=Bluegrass
TTITLE0=Run for your Life
TTITLE1=Warm Southern Winds
TTITLE2=Don't be Sad
TTITLE3=Tumbleweed Blues
TTITLE4=Endless Detour
TTITLE5=Blackberry Blossom
TTITLE6=Runaway Train
TTITLE7=Salt Creek
TTITLE8=John's Song
TTITLE9=Angel Band
EXTD=
EXTT0=
EXTT1=
EXTT2=
EXTT3=
EXTT4=
EXTT5=
EXTT6=
EXTT7=
EXTT8=
EXTT9=
PLAYORDER=
